<svg xmlns="http://www.w3.org/2000/svg" viewBox="0 0 505.145 505.145"><g fill="white"><path d="M68.54 164.715h-1.293c-16.588 0-30.113 13.568-30.113 30.113v131.107c0 16.61 13.525 30.134 30.113 30.134h1.316c16.588 0 30.113-13.57 30.113-30.135V194.827c-.022-16.544-13.568-30.112-30.135-30.112zM113.085 376.54c0 15.23 12.446 27.632 27.675 27.632h29.574v70.817c0 16.63 13.568 30.155 30.113 30.155h1.294c16.61 0 30.157-13.546 30.157-30.156V404.17h41.33v70.817c0 16.63 13.61 30.155 30.156 30.155h1.273c16.61 0 30.134-13.546 30.134-30.156V404.17h29.595c15.207 0 27.654-12.403 27.654-27.632V169.525H113.084V376.54zM322.04 43.983l23.492-36.26c1.51-2.287.84-5.414-1.467-6.903-2.286-1.51-5.414-.884-6.903 1.467L312.81 39.8c-18.27-7.486-38.677-11.692-60.227-11.692-21.57 0-41.934 4.206-60.247 11.69l-24.31-37.51C166.538-.065 163.388-.69 161.08.82c-2.308 1.488-2.977 4.616-1.467 6.903l23.512 36.26c-42.387 20.773-70.968 59.924-70.968 104.834 0 2.76.173 5.48.41 8.175H392.62c.237-2.696.388-5.414.388-8.175 0-44.91-28.602-84.06-70.967-104.834zM187.656 108.91c-7.442 0-13.482-5.996-13.482-13.46 0-7.462 6.04-13.438 13.482-13.438 7.485 0 13.482 5.975 13.482 13.44s-6.04 13.46-13.482 13.46zm129.835 0c-7.442 0-13.482-5.996-13.482-13.46 0-7.462 6.04-13.438 13.482-13.438 7.463 0 13.46 5.975 13.46 13.44 0 7.462-5.997 13.46-13.46 13.46zM437.876 164.715h-1.25c-16.59 0-30.157 13.568-30.157 30.113v131.107c0 16.61 13.59 30.134 30.155 30.134h1.273c16.61 0 30.113-13.57 30.113-30.135V194.827c0-16.544-13.546-30.112-30.134-30.112z"/></g></svg>
