<svg xmlns="http://www.w3.org/2000/svg" viewBox="0 0 305 305" fill="white"><path d="M40.738 112.12c-25.785 44.744-9.393 112.647 19.12 153.82C74.093 286.522 88.503 305 108.24 305c.373 0 .746-.007 1.128-.022 9.273-.37 15.974-3.225 22.453-5.984 7.273-3.1 14.796-6.305 26.596-6.305 11.226 0 18.39 3.1 25.318 6.098 6.828 2.954 13.86 6.01 24.253 5.815 22.232-.414 35.882-20.352 47.925-37.94 12.567-18.366 18.87-36.197 20.998-43.01l.086-.272c.405-1.21-.167-2.532-1.328-3.065-.032-.015-.15-.064-.183-.078-3.915-1.6-38.257-16.836-38.618-58.36-.335-33.736 25.763-51.6 30.997-54.84l.244-.15c.567-.366.962-.945 1.096-1.607.134-.66-.006-1.35-.386-1.905-18.014-26.362-45.624-30.335-56.74-30.813-1.613-.16-3.278-.242-4.95-.242-13.056 0-25.563 4.93-35.61 8.893-6.937 2.735-12.928 5.097-17.06 5.097-4.643 0-10.668-2.39-17.645-5.16-9.33-3.702-19.905-7.898-31.1-7.898-.267 0-.53.003-.79.008-26.03.383-50.625 15.275-64.185 38.86z"/><path d="M212.1.002c-15.762.642-34.67 10.345-45.973 23.583-9.605 11.127-18.988 29.68-16.516 48.38.156 1.17 1.108 2.072 2.285 2.163 1.064.083 2.15.125 3.232.126 15.413 0 32.04-8.527 43.395-22.257 11.95-14.498 17.994-33.104 16.166-49.77C214.544.92 213.395-.05 212.1.002z"/></svg>
