<svg  xmlns="http://www.w3.org/2000/svg" viewBox="0 0 44.2 44.2"><path d="M22.1,44.2C9.9,44.2,0,34.3,0,22.1S9.9,0,22.1,0s22.1,9.9,22.1,22.1S34.3,44.2,22.1,44.2L22.1,44.2z M22.1,1.5
	c-11.4,0-20.6,9.3-20.6,20.6c0,11.4,9.2,20.6,20.6,20.6s20.6-9.2,20.6-20.6C42.7,10.8,33.5,1.5,22.1,1.5L22.1,1.5z"/><path d="M19.6,29.9c-0.2,0-0.4-0.1-0.5-0.2c-0.3-0.3-0.3-0.8,0-1.1l6.8-6.8L19,15c-0.3-0.3-0.3-0.8,0-1.1s0.8-0.3,1.1,0l7.3,7.3
	c0.3,0.3,0.3,0.8,0,1.1l-7.3,7.3C20,29.8,19.8,29.9,19.6,29.9L19.6,29.9z"/></svg>
