<svg xmlns="http://www.w3.org/2000/svg" viewBox="0 0 36 36"><path fill="white" d="M36.47,0H5.79A2.63,2.63,0,0,0,3.13,2.6V33.4A2.63,2.63,0,0,0,5.79,36H36.47a2.63,2.63,0,0,0,2.66-2.6V2.6A2.63,2.63,0,0,0,36.47,0ZM13.81,30.68H8.47V13.5h5.34V30.68ZM11.14,11.15a3.1,3.1,0,1,1,3.09-3.1A3.1,3.1,0,0,1,11.14,11.15ZM33.81,30.68H28.47V22.32c0-2,0-4.56-2.77-4.56s-3.2,2.17-3.2,4.41v8.5H17.16V13.5h5.12v2.35h0.07a5.61,5.61,0,0,1,5.05-2.77c5.41,0,6.41,3.56,6.41,8.18v9.42Z" transform="translate(-3.13)"></path></svg>
