<svg xmlns="http://www.w3.org/2000/svg" width="48.665" height="48.665" viewBox="0 0 48.665 48.665"><path fill="#297666" d="M40.332 31.592c-2.377 0-4.515 1-6.033 2.598L16.56 25.504c.06-.406.103-.82.103-1.246 0-.414-.04-.818-.098-1.215l17.71-8.59c1.52 1.61 3.667 2.62 6.055 2.62 4.603 0 8.333-3.73 8.333-8.333S44.935.407 40.332.407 32 4.137 32 8.74c0 .414.04.817.097 1.215l-17.71 8.59c-1.518-1.61-3.665-2.62-6.053-2.62C3.73 15.925 0 19.655 0 24.258s3.73 8.333 8.333 8.333c2.377 0 4.515-1 6.033-2.595l17.736 8.685c-.062.406-.104.82-.104 1.245 0 4.604 3.73 8.333 8.333 8.333s8.334-3.73 8.334-8.333-3.73-8.333-8.332-8.333z"/></svg>
