<?xml version="1.0" standalone="no"?>
<!DOCTYPE svg PUBLIC "-//W3C//DTD SVG 20010904//EN"
 "http://www.w3.org/TR/2001/REC-SVG-20010904/DTD/svg10.dtd">
<svg version="1.0" xmlns="http://www.w3.org/2000/svg"
 width="16.000000pt" height="16.000000pt" viewBox="0 0 16.000000 16.000000"
 preserveAspectRatio="xMidYMid meet">
<metadata>
Created by potrace 1.11, written by Peter Selinger 2001-2013
</metadata>
<g transform="translate(0.000000,16.000000) scale(0.006154,-0.006154)"
fill="#000000" stroke="none">
<path d="M120 2300 c0 -11 5 -20 10 -20 6 0 10 9 10 20 0 11 -4 20 -10 20 -5
0 -10 -9 -10 -20z"/>
<path d="M140 2196 c0 -25 5 -48 10 -51 6 -3 10 -21 10 -40 0 -19 5 -37 10
-40 6 -3 10 -22 10 -41 0 -19 5 -34 10 -34 6 0 10 -11 10 -24 0 -14 5 -28 10
-31 6 -3 10 -15 10 -26 0 -10 5 -19 10 -19 6 0 10 -9 10 -20 0 -11 5 -20 10
-20 6 0 10 -9 10 -20 0 -11 5 -20 10 -20 6 0 10 -9 10 -20 0 -11 5 -20 10 -20
6 0 10 -8 10 -18 0 -9 9 -23 20 -30 11 -7 20 -20 20 -30 0 -9 14 -28 30 -41
17 -13 30 -29 30 -35 0 -15 212 -216 228 -216 4 0 23 -14 42 -30 19 -16 41
-30 48 -30 6 0 12 -4 12 -10 0 -5 9 -10 20 -10 11 0 20 -4 20 -10 0 -5 6 -10
13 -10 7 0 23 -9 35 -20 12 -11 28 -20 37 -20 8 0 15 -4 15 -10 0 -5 9 -10 20
-10 11 0 20 -4 20 -10 0 -5 9 -10 20 -10 11 0 20 -4 20 -10 0 -5 9 -10 19 -10
10 0 45 -13 76 -30 31 -16 65 -30 75 -30 11 0 22 -4 25 -10 3 -5 16 -10 29
-10 12 0 26 -4 32 -8 5 -5 36 -17 69 -26 33 -10 70 -22 83 -27 13 -5 34 -9 47
-9 13 0 27 -4 30 -10 3 -5 17 -10 30 -10 13 0 27 -4 30 -10 3 -5 17 -10 30
-10 13 0 27 -4 30 -10 3 -5 17 -10 30 -10 13 0 27 -5 30 -10 3 -5 15 -10 26
-10 10 0 27 -4 37 -9 16 -8 31 -15 100 -43 17 -7 32 -16 32 -20 0 -5 9 -8 20
-8 11 0 20 -4 20 -10 0 -5 9 -10 20 -10 11 0 20 -4 20 -10 0 -5 8 -10 18 -10
10 0 24 -9 32 -20 8 -11 21 -20 30 -20 9 0 22 -9 30 -20 8 -11 20 -20 27 -20
7 0 26 -13 41 -30 16 -16 33 -30 38 -30 12 0 214 -202 214 -214 0 -4 13 -21
30 -36 16 -15 30 -33 30 -39 0 -6 9 -20 20 -31 11 -11 20 -27 20 -35 0 -8 5
-15 10 -15 6 0 10 -9 10 -20 0 -11 5 -20 10 -20 6 0 10 -9 10 -20 0 -11 5 -20
10 -20 6 0 10 9 10 20 0 11 -4 20 -10 20 -5 0 -10 14 -10 30 0 17 -4 30 -10
30 -5 0 -10 8 -10 17 0 23 -87 198 -106 213 -8 7 -14 18 -14 24 0 13 -207 222
-237 239 -11 7 -40 25 -64 42 -78 53 -252 145 -274 145 -7 0 -33 10 -57 21
-23 12 -54 26 -68 32 -14 5 -33 13 -42 18 -10 5 -24 9 -33 9 -8 0 -30 9 -50
20 -20 11 -44 20 -55 20 -11 0 -20 5 -20 10 0 6 -13 10 -30 10 -16 0 -30 5
-30 10 0 6 -9 10 -20 10 -11 0 -29 5 -40 10 -11 6 -29 15 -40 20 -11 6 -29 10
-40 10 -11 0 -20 5 -20 10 0 6 -11 10 -24 10 -14 0 -28 5 -31 10 -3 6 -15 10
-25 10 -11 0 -35 9 -55 20 -20 11 -42 20 -49 20 -8 0 -34 10 -58 21 -23 12
-52 25 -63 29 -38 14 -120 54 -135 66 -8 6 -31 20 -50 30 -19 11 -48 28 -64
39 -44 30 -266 247 -266 260 0 6 -11 22 -25 35 -14 13 -23 26 -20 29 3 2 -7
17 -22 33 -15 15 -24 28 -21 28 4 0 -16 43 -43 97 -27 53 -49 104 -49 115 0
10 -4 18 -10 18 -5 0 -10 11 -10 24 0 14 -4 28 -10 31 -5 3 -10 19 -10 36 0
16 -4 29 -10 29 -5 0 -10 -20 -10 -44z"/>
</g>
</svg>
